<?xml version="1.0" encoding="UTF-8"?> <svg xmlns="http://www.w3.org/2000/svg" width="1098pt" height="400pt" viewBox="0 0 1098 400" version="1.1"><g id="#455ba4ff"><path fill="#455ba4" opacity="1.00" d=" M 246.76 8.07 C 265.95 5.30 286.21 6.93 304.01 14.99 C 317.62 20.63 329.50 29.79 339.99 40.02 C 353.06 53.94 362.78 71.05 367.81 89.49 C 370.04 97.95 372.60 106.38 373.51 115.10 C 375.72 129.90 376.53 144.99 380.77 159.42 C 384.97 176.31 393.32 191.71 400.46 207.46 C 405.26 217.54 407.61 228.83 406.44 240.00 C 405.93 256.75 398.12 272.65 386.59 284.59 C 380.79 290.28 373.64 294.27 367.26 299.25 C 351.08 311.63 335.26 324.49 320.00 338.00 C 304.87 351.40 288.95 364.58 269.94 372.07 C 247.36 383.52 222.65 391.23 197.27 392.46 C 179.86 394.43 162.30 392.25 145.14 389.25 C 138.02 388.06 131.17 385.75 124.18 384.02 C 99.58 377.81 76.32 365.66 57.87 348.15 C 46.74 337.93 38.70 324.95 30.83 312.19 C 19.45 293.67 15.80 271.60 15.20 250.20 C 14.31 243.16 15.24 236.10 15.45 229.06 C 16.56 211.98 21.99 195.62 27.51 179.54 C 36.80 157.36 47.64 135.73 54.21 112.50 C 59.83 90.80 69.98 69.90 85.68 53.68 C 94.99 44.31 106.39 36.93 118.97 32.80 C 137.45 27.34 156.89 27.70 175.86 25.36 C 189.13 23.66 201.67 18.77 214.57 15.45 C 225.10 12.19 235.82 9.52 246.76 8.07 M 258.25 25.82 C 261.57 27.72 265.44 27.91 269.10 28.66 C 278.69 30.96 288.53 32.44 297.60 36.50 C 312.09 41.54 324.99 50.42 335.84 61.16 C 339.30 64.61 341.42 69.87 346.47 71.35 C 340.24 54.86 326.87 41.65 311.43 33.53 C 302.36 29.67 292.85 26.48 282.99 25.57 C 274.76 25.02 266.39 23.92 258.25 25.82 M 219.59 39.81 C 223.34 40.65 227.22 40.31 230.99 41.04 C 239.13 42.56 247.20 44.49 255.17 46.76 C 265.18 49.18 274.58 53.52 283.79 58.04 C 301.93 67.28 318.50 79.73 331.93 95.06 C 353.67 119.93 367.85 151.41 371.62 184.26 C 372.88 191.78 372.20 199.42 372.52 207.00 C 372.37 223.35 368.65 239.42 363.91 254.98 C 361.08 262.85 357.52 270.45 354.87 278.39 C 359.63 272.32 361.84 264.83 364.80 257.83 C 367.86 250.63 369.54 242.97 371.25 235.37 C 379.24 199.37 373.72 160.77 357.03 127.99 C 335.38 84.97 293.79 52.39 246.57 42.50 C 237.76 40.62 228.63 38.34 219.59 39.81 M 133.48 44.55 C 129.00 45.91 124.02 48.16 122.83 53.17 C 130.13 54.56 136.63 50.42 143.28 48.19 C 146.87 47.00 150.47 45.62 153.26 42.97 C 146.72 41.03 139.82 42.64 133.48 44.55 M 213.85 48.99 C 227.16 49.55 240.16 52.75 253.08 55.77 C 271.68 61.41 289.33 70.34 304.63 82.36 C 341.32 110.71 363.53 156.66 363.12 203.00 C 363.31 218.06 360.26 232.91 356.44 247.40 C 353.54 256.12 349.91 264.58 346.82 273.23 C 351.92 266.12 354.37 257.64 357.51 249.58 C 359.92 243.02 361.38 236.17 362.56 229.30 C 369.91 191.13 361.43 150.31 340.07 117.89 C 319.11 85.41 285.34 61.53 247.77 52.50 C 236.57 50.55 225.29 47.79 213.85 48.99 M 136.82 75.95 C 115.29 89.15 97.16 107.92 85.00 130.07 C 79.87 134.02 76.40 139.76 75.26 146.13 C 72.77 150.79 71.20 155.86 69.84 160.94 C 66.91 172.39 64.67 184.09 64.39 195.94 C 63.75 218.16 68.09 240.56 77.09 260.90 C 92.67 296.90 123.23 326.05 159.90 339.96 C 178.38 346.91 198.58 350.91 218.27 347.64 C 230.36 347.36 242.47 345.73 254.01 342.00 C 266.93 338.34 279.35 332.86 290.66 325.61 C 322.87 305.75 346.40 272.62 355.02 235.82 C 361.21 211.46 360.49 185.49 353.31 161.42 C 340.34 113.92 301.61 74.49 254.37 60.62 C 242.21 57.17 229.72 54.29 217.01 54.40 C 188.91 53.31 160.79 61.42 136.82 75.95 M 68.76 136.53 C 65.75 143.73 62.58 150.90 60.63 158.48 C 58.23 168.83 55.70 179.26 55.27 189.92 C 53.53 213.13 57.43 236.65 65.79 258.33 C 84.09 306.18 127.04 343.88 177.09 355.13 C 188.41 357.18 199.90 359.29 211.44 358.12 C 196.87 356.98 182.37 354.59 168.29 350.61 C 143.29 342.86 120.13 328.96 101.96 310.08 C 80.48 288.35 65.84 260.08 60.05 230.11 C 56.99 216.15 56.95 201.79 57.52 187.58 C 58.54 174.89 61.46 162.45 65.22 150.32 C 67.95 141.95 71.91 134.06 75.07 125.86 C 72.61 129.19 70.40 132.72 68.76 136.53 M 389.57 223.39 C 389.15 227.84 388.68 232.80 392.03 236.33 C 393.10 235.33 394.38 234.48 395.14 233.18 C 396.53 228.26 395.34 222.74 391.91 218.90 C 391.01 220.31 389.78 221.66 389.57 223.39 M 49.02 243.37 C 48.38 251.33 50.03 259.26 51.87 266.96 C 56.45 286.19 66.88 303.50 79.38 318.61 C 85.16 325.84 92.54 331.52 99.74 337.25 C 109.25 343.88 119.34 349.88 130.31 353.78 C 136.46 355.97 142.63 358.66 149.26 358.83 C 146.05 355.76 141.99 353.88 138.16 351.72 C 113.26 337.92 90.07 319.80 74.00 296.02 C 65.92 285.23 60.78 272.62 55.79 260.19 C 53.55 254.58 52.38 248.48 49.02 243.37 Z"></path><path fill="#455ba4" opacity="1.00" d=" M 239.99 150.98 C 248.94 143.03 261.16 139.43 273.00 139.58 C 284.26 139.33 295.74 141.13 305.95 146.07 C 311.92 148.68 317.34 152.32 322.56 156.18 C 318.35 162.26 313.93 168.20 309.74 174.30 C 300.90 168.32 291.41 162.75 280.67 161.17 C 272.78 160.15 263.81 160.09 257.22 165.23 C 251.18 169.88 250.13 179.37 254.55 185.44 C 258.94 190.09 265.30 192.12 271.28 193.85 C 283.61 197.63 296.61 199.75 308.09 205.88 C 316.44 210.23 323.51 217.85 325.54 227.24 C 327.45 236.08 326.74 245.65 322.88 253.88 C 318.83 262.74 310.80 269.41 301.77 272.78 C 285.61 278.59 267.69 277.29 251.49 272.32 C 240.94 268.58 231.06 262.81 222.87 255.16 C 227.64 249.42 232.50 243.74 237.28 238.01 C 248.50 247.92 262.67 255.65 278.00 255.44 C 284.97 255.83 292.39 254.43 297.91 249.92 C 303.07 245.66 304.21 237.65 301.23 231.82 C 297.98 226.41 291.76 223.86 286.02 222.00 C 271.18 217.54 255.17 215.60 241.94 206.95 C 233.86 223.17 215.31 231.01 197.98 231.70 C 187.51 231.72 177.04 231.73 166.57 231.67 C 166.51 245.96 166.52 260.25 166.59 274.54 C 158.67 274.55 150.74 274.53 142.82 274.54 C 143.03 230.16 142.71 185.77 142.98 141.39 C 162.34 141.46 181.70 141.38 201.06 141.45 C 213.59 141.94 225.93 146.78 235.15 155.35 C 237.20 154.58 238.29 152.32 239.99 150.98 M 166.51 162.77 C 166.59 178.55 166.50 194.33 166.56 210.10 C 169.92 211.10 173.54 210.39 177.00 210.59 C 187.34 210.33 198.09 211.75 207.98 207.95 C 215.27 204.84 221.18 197.95 222.11 189.94 C 223.22 181.78 220.45 172.41 213.17 167.86 C 207.00 163.57 199.31 162.73 192.00 162.71 C 183.50 162.77 175.01 162.66 166.51 162.77 Z"></path><path fill="#455ba4" opacity="1.00" d=" M 102.64 141.40 C 110.54 141.42 118.44 141.41 126.34 141.43 C 126.34 185.80 126.30 230.16 126.36 274.53 C 119.90 274.55 113.44 274.51 106.97 274.58 C 105.52 274.47 103.93 274.78 102.58 274.07 C 102.71 229.85 102.61 185.62 102.64 141.40 Z"></path><path fill="#455ba4" opacity="1.00" d=" M 674.66 216.80 C 679.88 216.83 685.11 216.86 690.34 216.88 C 690.68 249.48 690.37 282.10 690.50 314.72 C 685.15 314.77 679.80 314.72 674.45 314.72 C 674.59 282.08 674.15 249.43 674.66 216.80 Z"></path><path fill="#455ba4" opacity="1.00" d=" M 1016.04 219.14 C 1030.62 214.26 1047.10 216.36 1060.41 223.86 C 1062.28 225.16 1065.07 226.07 1065.29 228.72 C 1063.15 232.61 1060.56 236.26 1059.01 240.45 C 1055.00 238.44 1051.59 235.38 1047.38 233.77 C 1041.28 231.18 1034.52 231.36 1028.03 231.38 C 1024.30 231.35 1020.40 232.16 1017.51 234.63 C 1013.38 237.68 1012.36 243.55 1014.07 248.18 C 1015.81 252.79 1020.99 254.28 1025.19 255.81 C 1037.03 259.15 1049.67 261.06 1060.14 267.97 C 1066.76 272.17 1070.25 280.28 1069.62 288.00 C 1069.98 296.45 1065.89 304.97 1058.70 309.54 C 1050.44 315.46 1039.87 316.10 1030.06 315.93 C 1017.21 315.61 1004.63 311.15 994.22 303.68 C 992.99 303.10 993.06 301.58 993.79 300.65 C 995.97 296.88 997.95 293.01 999.81 289.07 C 1010.43 296.39 1022.87 302.36 1036.09 301.52 C 1042.15 301.24 1049.21 299.15 1051.91 293.14 C 1054.35 287.79 1050.66 281.68 1045.68 279.36 C 1038.82 276.04 1031.23 274.67 1024.09 272.09 C 1015.58 269.38 1005.66 267.38 1000.33 259.47 C 997.33 255.66 997.38 250.61 997.36 246.00 C 997.43 241.97 997.27 237.73 999.10 234.01 C 1002.35 227.01 1008.76 221.60 1016.04 219.14 Z"></path><path fill="#455ba4" opacity="1.00" d=" M 553.58 217.55 C 558.63 217.53 563.68 217.52 568.73 217.48 C 568.78 250.04 568.96 282.60 568.63 315.16 C 563.63 315.22 558.61 315.57 553.65 314.80 C 553.45 282.39 553.58 249.97 553.58 217.55 Z"></path><path fill="#455ba4" opacity="1.00" d=" M 744.38 217.30 C 754.68 215.38 765.76 217.01 774.86 222.28 C 782.04 226.85 788.25 233.00 792.57 240.36 C 795.18 245.30 797.07 250.61 798.37 256.04 C 799.03 262.64 798.98 269.34 798.40 275.95 C 795.82 288.30 789.42 300.49 778.39 307.23 C 770.89 312.97 761.48 316.18 752.00 315.65 C 737.94 316.42 724.87 308.45 716.23 297.85 C 710.21 290.78 707.65 281.60 705.75 272.71 C 704.23 260.56 707.48 248.07 713.75 237.64 C 717.48 232.56 722.05 228.11 727.01 224.23 C 731.97 220.27 738.25 218.48 744.38 217.30 M 748.78 231.31 C 742.84 232.04 737.24 234.72 733.04 239.00 C 719.75 250.69 718.42 272.12 727.35 286.80 C 730.58 291.05 734.52 294.85 739.01 297.77 C 746.87 302.64 757.33 302.65 765.34 298.10 C 770.82 294.97 775.44 290.29 778.49 284.75 C 783.41 275.32 783.88 263.96 781.20 253.81 C 779.45 246.91 774.69 241.32 769.37 236.81 C 766.70 234.57 763.56 232.82 760.12 232.13 C 756.40 231.35 752.55 230.07 748.78 231.31 Z"></path><path fill="#455ba4" opacity="1.00" d=" M 814.56 217.51 C 818.90 217.51 823.25 217.47 827.60 217.52 C 833.54 225.55 840.18 233.02 846.16 241.02 C 851.92 247.58 856.72 254.90 862.60 261.36 C 865.55 264.79 867.86 268.72 870.94 272.07 C 874.93 276.42 877.89 281.66 882.38 285.57 C 882.68 262.91 882.44 240.24 882.48 217.58 C 887.83 217.56 893.19 217.50 898.54 217.59 C 898.59 249.91 898.54 282.24 898.58 314.56 C 894.49 315.13 890.29 315.77 886.20 315.05 C 882.95 312.91 880.75 309.61 878.48 306.53 C 868.50 294.14 858.35 281.88 848.55 269.34 C 842.40 262.29 837.13 254.50 830.58 247.79 C 830.26 269.52 830.59 291.28 830.42 313.02 C 830.70 314.83 828.37 315.36 827.03 315.28 C 822.87 315.05 818.73 314.52 814.57 314.68 C 814.53 282.29 814.54 249.90 814.56 217.51 Z"></path><path fill="#455ba4" opacity="1.00" d=" M 434.05 217.48 C 439.52 217.55 444.99 217.61 450.45 217.44 C 456.25 224.53 459.00 233.44 464.00 241.03 C 466.61 244.89 468.43 249.20 470.56 253.34 C 474.16 260.70 478.68 267.56 482.48 274.82 C 482.78 274.79 483.38 274.75 483.69 274.73 C 490.51 262.79 496.52 250.42 503.49 238.57 C 506.85 231.35 510.93 224.53 514.73 217.55 C 520.19 217.61 525.65 217.29 531.10 217.63 C 533.24 219.12 531.97 221.86 531.94 223.99 C 531.17 228.66 532.31 233.32 532.31 237.99 C 532.29 261.00 532.27 284.01 532.32 307.02 C 532.36 309.60 532.00 312.17 531.65 314.72 C 526.35 315.44 521.01 315.25 515.68 315.24 C 515.41 297.49 515.65 279.74 515.56 262.00 C 515.45 257.01 516.10 251.97 515.03 247.04 C 509.21 256.98 504.84 267.70 498.61 277.40 C 494.62 283.67 492.34 290.91 487.92 296.91 C 486.40 299.14 483.43 298.31 481.14 298.44 C 478.54 298.74 477.41 295.85 476.14 294.11 C 472.79 288.09 469.70 281.92 466.44 275.85 C 460.97 267.13 456.40 257.87 451.89 248.63 C 450.88 249.92 450.38 251.38 450.40 253.00 C 450.57 273.54 450.42 294.09 450.51 314.63 C 445.17 315.39 439.78 315.25 434.40 315.32 C 433.99 311.56 433.96 307.77 434.01 303.99 C 434.06 275.16 433.97 246.32 434.05 217.48 Z"></path><path fill="#455ba4" opacity="1.00" d=" M 604.75 219.64 C 611.12 216.80 618.21 217.35 625.00 217.19 C 635.47 216.77 646.10 220.28 654.37 226.68 C 655.47 227.19 655.72 228.46 655.04 229.43 C 652.85 233.15 650.55 236.81 648.75 240.74 C 644.96 237.93 641.16 234.96 636.62 233.48 C 630.05 230.84 622.87 231.29 615.95 231.44 C 611.50 231.56 607.22 234.03 604.95 237.86 C 602.78 241.53 603.16 246.27 605.10 249.95 C 607.64 253.31 611.88 254.78 615.79 255.93 C 627.51 259.02 639.70 261.46 650.20 267.85 C 655.67 271.33 659.12 277.52 659.51 283.96 C 659.77 289.44 659.93 295.34 657.04 300.23 C 652.37 309.02 642.77 314.62 632.96 315.30 C 615.48 317.83 596.88 313.65 583.06 302.41 C 585.59 297.94 587.75 293.26 590.60 288.97 C 601.43 297.76 615.69 303.04 629.72 301.20 C 633.97 300.36 638.69 298.78 640.89 294.71 C 643.01 291.63 643.31 287.14 640.96 284.10 C 637.42 278.89 630.98 277.26 625.37 275.32 C 616.51 272.16 607.05 270.72 598.58 266.49 C 593.03 263.64 588.16 258.44 587.47 252.02 C 587.10 248.01 587.14 243.96 587.47 239.95 C 589.18 230.79 595.94 222.78 604.75 219.64 Z"></path><path fill="#455ba4" opacity="1.00" d=" M 920.42 217.60 C 942.27 217.49 964.12 217.59 985.98 217.57 C 986.11 222.21 986.07 226.86 985.68 231.49 C 968.99 231.25 952.31 231.51 935.63 231.36 C 935.61 240.19 935.44 249.02 935.67 257.84 L 936.20 258.51 C 950.58 258.76 964.98 258.37 979.36 258.70 C 979.34 263.00 979.50 267.35 978.67 271.60 C 964.34 271.37 950.01 271.64 935.69 271.45 C 935.49 281.18 935.54 290.91 935.67 300.65 C 952.44 300.71 969.23 300.39 985.99 300.73 C 986.31 301.06 986.94 301.74 987.26 302.08 C 987.67 306.26 987.49 310.49 987.05 314.67 C 982.07 315.51 977.02 315.23 972.00 315.24 C 955.99 315.22 939.98 315.24 923.97 315.27 C 922.68 315.23 920.05 315.04 920.44 313.18 C 920.47 281.32 920.48 249.46 920.42 217.60 Z"></path></g><g id="#6c6d6ffd"><path fill="#6c6d6f" opacity="1.00" d=" M 439.59 84.55 C 442.50 84.43 445.43 84.47 448.35 84.58 C 448.24 99.28 448.28 113.98 448.32 128.68 C 445.38 128.75 442.45 128.73 439.52 128.60 C 439.66 113.92 439.58 99.23 439.59 84.55 Z"></path><path fill="#6c6d6f" opacity="1.00" d=" M 491.28 84.44 C 493.76 84.42 496.24 84.37 498.72 84.31 C 498.78 99.34 498.89 114.37 498.66 129.40 C 496.21 129.10 493.10 129.81 491.40 127.55 C 486.11 121.74 481.73 115.19 476.87 109.04 C 473.63 105.43 470.86 101.44 467.89 97.61 C 467.04 108.10 467.95 118.65 467.39 129.15 C 465.07 129.20 462.76 129.21 460.45 129.24 C 460.18 114.29 460.29 99.34 460.39 84.39 C 462.62 84.38 464.86 84.38 467.10 84.41 C 469.69 87.69 471.97 91.20 474.64 94.43 C 480.29 100.99 484.90 108.43 491.17 114.46 C 491.42 104.46 491.18 94.44 491.28 84.44 Z"></path><path fill="#6c6d6f" opacity="1.00" d=" M 513.02 87.11 C 517.59 83.41 523.88 83.57 529.37 84.46 C 533.30 85.02 536.48 87.57 539.67 89.72 C 538.35 91.49 537.12 93.33 536.00 95.23 C 531.38 93.69 527.14 90.38 522.00 91.23 C 517.93 90.81 514.20 96.38 517.43 99.59 C 522.64 104.04 530.37 103.24 535.93 107.12 C 542.33 110.89 542.27 121.23 536.56 125.60 C 532.30 129.97 525.73 129.83 520.12 129.24 C 515.44 128.24 510.77 126.08 507.52 122.50 C 507.14 120.08 509.64 117.51 511.94 117.25 C 515.94 119.70 520.10 122.53 525.02 122.37 C 527.90 122.75 530.27 120.92 532.64 119.60 C 532.67 117.55 532.67 115.51 532.63 113.47 C 527.14 110.19 520.64 109.70 514.80 107.32 C 511.51 105.41 508.01 102.22 508.38 98.04 C 507.89 93.87 509.57 89.57 513.02 87.11 Z"></path><path fill="#6c6d6f" opacity="1.00" d=" M 592.37 84.43 C 594.73 84.40 597.10 84.40 599.47 84.39 C 599.55 99.30 599.71 114.21 599.40 129.12 C 597.08 129.19 594.76 129.20 592.45 129.24 C 592.16 114.31 592.32 99.37 592.37 84.43 Z"></path><path fill="#6c6d6f" opacity="1.00" d=" M 652.38 84.36 C 654.69 84.59 657.36 83.80 659.43 85.01 C 659.83 94.30 659.28 103.62 659.66 112.91 C 660.49 117.50 664.12 121.98 669.03 122.28 C 675.04 123.54 681.94 118.43 681.49 112.08 C 681.49 102.87 681.50 93.67 681.47 84.47 C 684.15 84.44 686.84 84.43 689.53 84.46 C 689.49 93.50 689.48 102.55 689.39 111.59 C 689.17 117.57 686.73 124.06 681.23 127.07 C 677.39 129.81 672.50 129.59 668.02 129.46 C 659.97 129.25 652.07 122.38 652.29 114.02 C 652.33 104.13 652.23 94.24 652.38 84.36 Z"></path><path fill="#6c6d6f" opacity="1.00" d=" M 697.39 84.47 C 709.03 84.38 720.68 84.47 732.32 84.44 C 732.53 86.75 732.64 89.07 732.76 91.39 C 728.28 91.50 723.81 91.50 719.35 91.45 C 718.77 104.06 719.96 116.73 718.70 129.29 C 716.04 129.25 713.39 129.22 710.74 129.16 C 710.66 116.85 710.71 104.53 710.70 92.21 C 706.56 92.17 702.42 92.16 698.29 92.22 C 697.46 89.72 697.43 87.08 697.39 84.47 Z"></path><path fill="#6c6d6f" opacity="1.00" d=" M 758.28 84.18 C 764.15 83.65 770.67 83.87 775.57 87.59 C 783.87 93.08 787.39 104.39 784.42 113.77 C 782.71 119.38 778.32 123.70 773.54 126.86 C 768.76 130.07 762.66 129.74 757.20 129.21 C 752.46 127.82 747.83 125.25 744.60 121.46 C 741.61 116.90 738.79 111.65 739.36 106.01 C 739.91 95.75 747.81 85.61 758.28 84.18 M 757.70 91.82 C 753.49 93.87 749.42 97.21 748.28 101.95 C 747.01 105.64 747.67 109.65 748.86 113.26 C 751.15 119.24 757.79 122.68 764.00 122.34 C 773.32 121.40 779.68 110.77 776.76 102.00 C 774.53 94.12 765.54 88.98 757.70 91.82 Z"></path><path fill="#6c6d6f" opacity="1.00" d=" M 813.47 84.47 C 819.98 84.44 826.48 84.35 832.99 84.44 C 839.07 84.63 844.61 87.90 848.84 92.08 C 854.36 98.61 855.74 108.37 852.05 116.13 C 849.82 121.78 844.47 125.47 839.02 127.65 C 834.58 129.54 829.66 128.39 825.01 128.95 C 821.16 129.43 817.29 129.15 813.47 128.63 C 813.51 113.91 813.49 99.19 813.47 84.47 M 821.55 91.58 C 821.51 101.78 821.34 111.99 821.60 122.20 C 827.55 122.37 834.00 122.55 839.23 119.22 C 847.81 113.87 847.53 99.34 838.88 94.16 C 833.84 90.40 827.38 91.69 821.55 91.58 Z"></path><path fill="#6c6d6f" opacity="1.00" d=" M 548.43 84.46 C 560.03 84.37 571.63 84.50 583.23 84.41 C 583.28 86.76 583.32 89.10 583.34 91.45 C 578.74 91.49 574.14 91.47 569.54 91.54 C 569.54 103.92 569.36 116.29 569.57 128.67 C 566.88 128.94 564.17 128.93 561.48 128.76 C 561.46 116.32 561.58 103.89 561.42 91.46 C 557.06 91.51 552.70 91.52 548.34 91.42 C 548.34 89.10 548.39 86.78 548.43 84.46 Z"></path><path fill="#6c6d6f" opacity="1.00" d=" M 608.81 84.44 C 620.38 84.41 631.96 84.46 643.54 84.42 C 643.59 86.77 643.65 89.12 643.68 91.47 C 639.06 91.50 634.43 91.40 629.82 91.66 C 629.77 104.01 629.92 116.37 629.74 128.73 C 627.33 128.84 624.92 128.77 622.52 128.74 C 622.54 116.33 622.52 103.92 622.53 91.52 C 617.89 91.49 613.26 91.51 608.63 91.39 C 608.68 89.07 608.74 86.75 608.81 84.44 Z"></path><path fill="#6c6d6f" opacity="1.00" d=" M 863.24 88.99 C 863.45 87.49 862.79 85.63 863.92 84.41 C 874.46 84.44 885.00 84.43 895.54 84.40 C 895.58 86.75 895.64 89.10 895.67 91.46 C 887.41 91.45 879.15 91.57 870.90 91.41 C 870.77 95.33 870.74 99.25 870.70 103.16 C 878.02 103.19 885.35 103.06 892.68 103.22 C 892.71 105.57 892.75 107.92 892.81 110.27 C 885.44 110.32 878.08 110.31 870.72 110.43 C 870.75 114.20 870.77 117.98 870.83 121.76 C 877.57 121.64 884.31 121.68 891.06 121.66 C 892.99 121.72 895.78 121.81 896.54 124.02 C 896.39 125.60 895.97 127.13 895.63 128.67 C 884.92 129.66 874.10 129.27 863.36 128.92 C 863.16 115.61 863.35 102.30 863.24 88.99 Z"></path><path fill="#6c6d6f" opacity="1.00" d=" M 75.26 146.13 C 76.40 139.76 79.87 134.02 85.00 130.07 C 82.50 135.87 78.47 140.75 75.26 146.13 Z"></path><path fill="#6c6d6f" opacity="1.00" d=" M 716.72 145.76 C 719.06 142.73 721.21 139.55 723.00 136.16 C 725.70 136.67 728.18 137.86 730.03 139.92 C 727.78 141.71 725.68 143.69 723.34 145.36 C 721.39 146.76 718.89 145.84 716.72 145.76 Z"></path><path fill="#6c6d6f" opacity="1.00" d=" M 637.15 157.33 C 638.79 152.54 643.86 150.22 648.39 148.93 C 655.12 147.60 661.33 151.14 667.13 154.00 C 666.06 156.40 664.74 158.67 663.44 160.94 C 658.78 158.01 653.25 154.99 647.61 156.79 C 645.63 158.20 642.40 160.35 643.97 163.16 C 645.76 167.16 650.58 167.49 654.27 168.55 C 659.44 169.87 665.47 171.54 667.91 176.85 C 671.01 183.78 666.04 191.86 659.08 193.82 C 650.62 196.20 641.64 193.40 634.81 188.23 C 635.82 185.88 637.26 183.76 638.86 181.77 C 643.64 185.44 649.54 188.51 655.74 187.15 C 660.09 187.09 662.47 180.96 659.10 178.08 C 653.48 174.58 646.22 174.89 640.66 171.26 C 636.30 168.15 635.13 162.13 637.15 157.33 Z"></path><path fill="#6c6d6f" opacity="1.00" d=" M 819.95 157.75 C 821.48 152.79 826.60 150.22 831.27 148.96 C 838.01 147.71 844.66 150.67 850.00 154.59 C 848.97 156.86 847.77 159.10 846.01 160.89 C 841.24 157.86 834.94 154.21 829.42 157.49 C 826.54 158.85 827.38 162.21 827.30 164.78 C 833.27 168.66 840.88 168.41 846.91 172.11 C 851.45 174.94 852.69 180.91 851.09 185.76 C 848.54 191.55 842.21 195.01 835.97 194.61 C 829.29 195.00 823.17 191.97 817.81 188.29 C 818.70 185.86 820.15 183.71 821.69 181.65 C 825.14 183.87 828.62 186.79 832.94 186.81 C 835.61 186.94 838.32 186.97 840.99 186.53 C 844.19 185.04 844.85 180.21 842.03 178.01 C 836.18 174.99 829.27 174.63 823.60 171.21 C 819.09 168.48 818.51 162.37 819.95 157.75 Z"></path><path fill="#6c6d6f" opacity="1.00" d=" M 439.45 149.49 C 446.25 149.69 453.07 149.29 459.87 149.59 C 464.13 150.38 468.39 152.42 470.94 156.05 C 473.92 160.69 474.30 166.89 472.03 171.90 C 469.91 175.26 466.74 178.15 462.91 179.38 C 457.82 180.12 452.64 179.65 447.52 179.77 C 447.37 184.42 447.43 189.07 447.44 193.72 C 444.71 193.74 441.99 193.78 439.27 193.88 C 439.32 179.09 439.18 164.29 439.45 149.49 M 447.58 157.61 C 447.17 162.61 447.56 167.63 447.36 172.64 C 452.00 172.65 456.73 173.18 461.32 172.27 C 462.85 171.26 464.29 170.01 465.28 168.44 C 465.87 164.95 466.20 160.32 462.42 158.49 C 457.83 156.43 452.46 157.33 447.58 157.61 Z"></path><path fill="#6c6d6f" opacity="1.00" d=" M 482.36 149.43 C 489.86 149.67 497.37 149.33 504.87 149.58 C 509.47 150.55 514.73 152.40 516.94 156.92 C 519.17 161.02 519.14 166.19 517.35 170.44 C 515.18 173.91 511.70 176.28 508.11 178.11 C 512.14 183.18 515.82 188.51 519.86 193.58 C 517.27 193.82 514.63 194.46 512.05 193.96 C 509.98 193.71 509.02 191.67 507.84 190.23 C 505.34 186.60 502.72 183.05 500.33 179.35 C 496.70 179.29 493.08 179.34 489.46 179.39 C 489.50 184.30 489.49 189.22 489.47 194.13 C 487.01 194.14 484.55 194.14 482.09 194.16 C 481.73 182.79 482.49 171.39 482.00 160.01 C 481.77 156.48 481.94 152.94 482.36 149.43 M 489.53 157.41 C 489.47 162.13 489.47 166.85 489.47 171.57 C 495.54 172.49 502.54 173.59 507.97 169.98 C 512.69 167.05 511.35 158.96 505.96 157.65 C 500.51 157.01 495.00 157.45 489.53 157.41 Z"></path><path fill="#6c6d6f" opacity="1.00" d=" M 567.08 149.52 C 569.54 149.51 572.02 149.34 574.49 149.56 C 576.09 150.81 576.44 153.09 577.29 154.87 C 580.61 164.75 584.62 174.36 588.87 183.87 C 591.14 176.54 593.77 169.31 597.03 162.35 C 598.86 158.47 599.70 154.17 601.86 150.43 C 604.28 150.17 606.72 150.30 609.16 150.35 C 608.83 152.63 608.28 154.87 607.21 156.92 C 603.83 163.95 601.63 171.46 598.60 178.64 C 596.54 184.05 593.78 189.16 591.60 194.53 C 589.60 194.49 587.60 194.50 585.62 194.54 C 581.35 187.79 579.15 180.06 576.23 172.70 C 573.59 164.80 568.63 157.80 567.08 149.52 Z"></path><path fill="#6c6d6f" opacity="1.00" d=" M 712.49 149.85 C 718.56 148.87 725.57 148.35 730.89 152.10 C 736.36 155.20 740.48 160.55 742.13 166.61 C 744.29 175.84 740.04 186.17 731.92 191.08 C 722.70 197.11 709.08 195.48 701.78 187.14 C 695.00 179.38 694.22 166.83 700.54 158.56 C 703.68 154.71 707.78 151.54 712.49 149.85 M 715.65 156.72 C 710.75 158.07 706.61 162.03 705.45 167.02 C 704.97 171.58 704.52 176.70 707.25 180.70 C 709.33 183.99 712.87 186.93 716.95 186.83 C 720.35 186.87 724.18 187.38 727.06 185.12 C 736.18 179.91 736.18 165.17 727.97 159.11 C 724.39 156.72 719.86 155.55 715.65 156.72 Z"></path><path fill="#6c6d6f" opacity="1.00" d=" M 875.55 149.87 C 882.64 148.43 890.76 148.75 896.54 153.68 C 907.26 161.17 908.34 178.16 899.45 187.47 C 890.36 197.86 871.21 196.95 863.69 185.18 C 861.49 181.12 858.99 176.78 859.35 172.00 C 859.24 162.15 866.43 153.13 875.55 149.87 M 878.51 156.81 C 873.20 158.43 868.82 162.98 867.91 168.52 C 866.01 176.82 871.79 186.12 880.42 187.24 C 889.61 189.04 898.25 179.98 897.32 170.99 C 897.25 161.80 887.49 153.91 878.51 156.81 Z"></path><path fill="#6c6d6f" opacity="1.00" d=" M 913.31 169.99 C 912.98 159.88 921.87 151.68 931.10 149.36 C 939.00 147.23 947.21 150.71 953.05 156.00 C 951.29 157.66 950.20 161.37 947.22 160.65 C 943.88 159.10 940.90 156.27 937.01 156.31 C 932.98 155.76 929.08 157.57 926.07 160.10 C 918.86 166.50 919.69 179.75 927.89 184.94 C 932.45 188.27 939.23 188.29 943.85 185.08 C 945.47 184.07 947.03 182.98 948.61 181.91 C 949.88 183.17 951.18 184.42 952.54 185.61 C 952.56 186.56 952.59 187.50 952.63 188.45 C 948.30 191.03 944.01 194.37 938.73 194.44 C 931.82 195.36 924.67 193.15 919.52 188.46 C 914.57 183.74 912.54 176.70 913.31 169.99 Z"></path><path fill="#6c6d6f" opacity="1.00" d=" M 998.46 149.59 C 1000.53 149.39 1002.63 149.47 1004.73 149.45 C 1008.98 158.18 1012.00 167.47 1016.58 176.06 C 1019.36 181.90 1021.34 188.09 1024.39 193.82 C 1021.46 193.91 1018.54 193.90 1015.64 193.72 C 1014.53 190.53 1013.08 187.48 1011.91 184.32 C 1004.92 184.43 997.92 184.05 990.95 184.47 C 988.63 187.12 987.66 190.60 986.33 193.78 C 983.64 193.92 980.94 193.90 978.27 193.79 C 983.74 183.20 987.29 171.74 992.93 161.23 C 994.90 157.42 995.55 152.87 998.46 149.59 M 1001.31 159.91 C 998.03 165.08 996.10 170.97 994.10 176.72 C 998.97 176.88 1003.85 176.86 1008.72 176.65 C 1006.20 171.10 1004.64 165.05 1001.31 159.91 Z"></path><path fill="#6c6d6f" opacity="1.00" d=" M 752.37 150.38 C 754.83 150.47 757.48 149.83 759.82 150.76 C 768.03 160.20 774.86 170.77 783.37 179.97 C 783.56 170.19 783.21 160.40 783.59 150.63 C 785.96 150.24 788.37 150.31 790.77 150.26 C 791.78 164.76 790.96 179.34 791.22 193.87 C 788.65 193.88 785.30 194.92 783.48 192.51 C 780.06 188.61 777.02 184.39 773.73 180.38 C 769.16 175.04 765.70 168.77 760.32 164.14 C 760.22 174.00 760.27 183.86 760.36 193.72 C 757.68 193.78 755.00 193.84 752.33 193.86 C 752.49 179.36 752.36 164.87 752.37 150.38 Z"></path><path fill="#6c6d6f" opacity="1.00" d=" M 527.57 150.30 C 538.61 150.33 549.64 150.31 560.68 150.32 C 560.72 152.28 560.75 154.24 560.79 156.20 C 552.37 157.11 543.87 156.43 535.42 156.60 C 535.26 160.52 535.23 164.44 535.37 168.37 C 542.52 168.29 549.68 168.40 556.85 168.27 C 557.28 170.34 557.56 172.45 557.85 174.56 C 550.41 176.02 542.78 175.13 535.25 175.36 C 535.22 179.16 535.20 182.96 535.17 186.76 C 543.71 186.93 552.25 186.68 560.79 186.94 C 560.80 189.22 560.79 191.49 560.79 193.77 C 549.74 194.53 538.66 193.99 527.60 194.14 C 527.51 179.53 527.57 164.91 527.57 150.30 Z"></path><path fill="#6c6d6f" opacity="1.00" d=" M 618.48 150.33 C 621.02 150.31 623.57 150.34 626.12 150.41 C 626.23 161.94 625.47 173.47 626.04 185.00 C 626.20 188.03 626.12 191.08 625.87 194.11 C 623.42 194.13 620.96 194.14 618.52 194.14 C 618.47 179.54 618.52 164.93 618.48 150.33 Z"></path><path fill="#6c6d6f" opacity="1.00" d=" M 678.76 150.30 C 681.34 150.30 683.92 150.34 686.51 150.40 C 686.42 164.95 686.49 179.51 686.44 194.07 C 683.88 194.13 681.33 194.16 678.79 194.19 C 678.75 179.56 678.80 164.93 678.76 150.30 Z"></path><path fill="#6c6d6f" opacity="1.00" d=" M 962.05 150.36 C 964.54 150.34 967.03 150.35 969.54 150.40 C 969.47 164.96 969.44 179.52 969.50 194.08 C 967.01 194.05 964.53 193.99 962.06 193.92 C 961.92 179.40 962.12 164.88 962.05 150.36 Z"></path><path fill="#6c6d6f" opacity="1.00" d=" M 1031.59 150.33 C 1033.97 150.32 1036.36 150.31 1038.76 150.29 C 1039.94 162.38 1038.93 174.59 1039.20 186.73 C 1047.05 186.89 1054.91 186.74 1062.76 186.84 C 1062.78 189.18 1062.79 191.53 1062.80 193.87 C 1052.41 194.25 1042.01 193.94 1031.62 194.10 C 1031.56 179.51 1031.61 164.92 1031.59 150.33 Z"></path></g></svg> 